HIERARCHY
ROOT Hips
{
	OFFSET 0.000000 0.000000 0.000000
	CHANNELS 6 Xposition Yposition Zposition Yrotation Xrotation Zrotation 
	JOINT LeftHip
	{
		OFFSET 0.077119 0.000138 -0.000015
		CHANNELS 3 Yrotation Xrotation Zrotation
		JOINT LeftKnee
		{
			OFFSET 0.000000 -0.426014 0.000072
			CHANNELS 3 Yrotation Xrotation Zrotation
			JOINT LeftAnkle
			{
				OFFSET 0.000000 -0.387606 0.000906
				CHANNELS 3 Yrotation Xrotation Zrotation
				JOINT LeftToe
				{
					OFFSET 0.000000 -0.086837 0.172228
					CHANNELS 3 Yrotation Xrotation Zrotation
					End Site
					{
						OFFSET 0.000000 0.000000 0.000000
					}
				}
			}
		}
	}
	JOINT RightHip
	{
		OFFSET -0.077119 0.000158 -0.000018
		CHANNELS 3 Yrotation Xrotation Zrotation
		JOINT RightKnee
		{
			OFFSET 0.000000 -0.426014 0.000072
			CHANNELS 3 Yrotation Xrotation Zrotation
			JOINT RightAnkle
			{
				OFFSET 0.000000 -0.387606 0.000906
				CHANNELS 3 Yrotation Xrotation Zrotation
				JOINT RightToe
				{
					OFFSET 0.000000 -0.086837 0.172228
					CHANNELS 3 Yrotation Xrotation Zrotation
					End Site
					{
						OFFSET 0.000000 0.000000 0.000000
					}
				}
			}
		}
	}
	JOINT Chest
	{
		OFFSET 0.000000 0.093501 -0.010389
		CHANNELS 3 Yrotation Xrotation Zrotation
		JOINT Chest3
		{
			OFFSET 0.000000 0.181972 -0.008899
			CHANNELS 3 Yrotation Xrotation Zrotation
			JOINT Chest4
			{
				OFFSET 0.000000 0.086970 -0.000061
				CHANNELS 3 Yrotation Xrotation Zrotation
				JOINT Neck
				{
					OFFSET 0.000000 0.116360 0.000000
					CHANNELS 3 Yrotation Xrotation Zrotation
					JOINT Head
					{
						OFFSET 0.000000 0.079760 0.000228
						CHANNELS 3 Yrotation Xrotation Zrotation
						End Site
						{
							OFFSET 0.000000 0.000000 0.000000
						}
					}
				}
				JOINT LeftCollar
				{
					OFFSET 0.021903 0.065262 0.000000
					CHANNELS 3 Yrotation Xrotation Zrotation
					JOINT LeftShoulder
					{
						OFFSET 0.106219 0.000000 0.000000
						CHANNELS 3 Yrotation Xrotation Zrotation
						JOINT LeftElbow
						{
							OFFSET 0.266680 0.000000 0.000000
							CHANNELS 3 Yrotation Xrotation Zrotation
							JOINT LeftWrist
							{
								OFFSET 0.205457 0.000000 0.000046
								CHANNELS 3 Yrotation Xrotation Zrotation
								End Site
								{
									OFFSET 0.000000 0.000000 0.000000
								}
							}
						}
					}
				}
				JOINT RightCollar
				{
					OFFSET -0.021903 0.065262 0.000000
					CHANNELS 3 Yrotation Xrotation Zrotation
					JOINT RightShoulder
					{
						OFFSET -0.106219 0.000000 0.000000
						CHANNELS 3 Yrotation Xrotation Zrotation
						JOINT RightElbow
						{
							OFFSET -0.266680 0.000000 0.000000
							CHANNELS 3 Yrotation Xrotation Zrotation
							JOINT RightWrist
							{
								OFFSET -0.205457 0.000000 0.000046
								CHANNELS 3 Yrotation Xrotation Zrotation
								End Site
								{
									OFFSET 0.000000 0.000000 0.000000
								}
							}
						}
					}
				}
			}
		}
	}
}
MOTION
Frames: 7
Frame Time: 0.016667
0.000000 0.000000 0.000000 339.316792 354.222014 357.640266 8.212726 11.114920 8.104102 0.630638 1.508058 0.708098 12.026674 353.327012 354.604856 0.167862 0.963369 359.353816 356.391792 4.053641 356.850954 1.290060 6.645336 359.938671 356.147628 353.694441 5.649261 359.751485 359.394669 358.708382 0.386204 6.221735 0.003507 359.772015 359.788034 0.082141 356.138235 7.531448 0.380542 342.121709 16.550585 8.315805 328.802764 356.192496 21.409904 2.664669 356.616211 351.664573 13.921758 6.468445 287.127188 311.085058 316.573612 309.534004 348.005413 357.559263 23.903354 357.397689 353.163359 6.755897 347.864118 4.341843 60.466983 74.428374 342.738319 46.394885 359.362798 1.341809 349.848361 
0.000000 0.000000 0.000000 339.458374 354.248634 357.686188 8.152619 11.050033 8.022314 0.609462 1.506003 0.709095 11.944379 353.345096 354.638534 0.166334 0.970941 359.338490 356.342585 4.003116 356.781159 1.271231 6.670758 359.929609 356.072639 353.689088 5.661017 359.686413 359.407080 358.719493 0.389192 6.266623 359.980224 359.776167 359.827486 0.061174 356.179616 7.538682 0.371477 342.043737 16.537365 8.351454 328.731212 356.205434 21.445933 2.649679 356.602410 351.670088 13.936216 6.501903 287.148431 311.091135 316.527551 309.512802 347.982346 357.552833 23.904577 357.412549 353.202083 6.769973 347.979513 4.268633 60.621855 74.434788 342.606185 46.343554 359.420785 1.296104 349.875928 
0.000000 0.000000 0.000000 339.582979 354.281075 357.729263 8.096942 10.976902 7.943018 0.591486 1.511009 0.709343 11.871261 353.360566 354.672932 0.163487 0.980662 359.354394 356.298262 3.942012 356.715332 1.254434 6.699443 359.922319 356.007580 353.686433 5.672339 359.685528 359.434348 358.726358 0.392457 6.312612 359.960244 359.779547 359.867686 0.043070 356.213184 7.547342 0.366195 341.957000 16.521096 8.384528 328.628843 356.226294 21.484198 2.639709 356.591777 351.676629 13.954730 6.541284 287.165555 311.097739 316.486548 309.500399 347.966967 357.544572 23.897160 357.431297 353.235627 6.785444 348.107771 4.197455 60.776968 74.463164 342.490871 46.292846 359.514822 1.246366 349.905965 
0.000000 0.000000 0.000000 339.681557 354.311025 357.766918 8.050312 10.907412 7.872326 0.577741 1.518720 0.709260 11.812942 353.375913 354.706008 0.158618 0.988467 359.365342 356.261674 3.878482 356.657436 1.241539 6.730071 359.916982 355.957618 353.690105 5.683452 359.676945 359.445773 358.725375 0.394633 6.358727 359.943408 359.783148 359.908032 0.027353 356.250229 7.556077 0.363428 341.868441 16.505668 8.416676 328.484284 356.246655 21.530753 2.632515 356.584286 351.682985 13.974397 6.578021 287.185997 311.104774 316.456979 309.496341 347.963183 357.533791 23.887135 357.451334 353.266247 6.802412 348.238736 4.133193 60.921671 74.510864 342.360214 46.252232 359.638208 1.204174 349.947918 
0.000000 0.000000 0.000000 339.752741 354.336390 357.797535 8.013770 10.843425 7.813071 0.568456 1.529050 0.708734 11.770862 353.392971 354.737696 0.153335 0.990854 359.368992 356.233500 3.821563 356.609561 1.232866 6.748797 359.913619 355.923071 353.709993 5.694901 359.663895 359.437194 358.714618 0.396578 6.405977 359.929997 359.786118 359.949566 0.014704 356.290247 7.565375 0.363249 341.778874 16.490152 8.449087 328.306547 356.258389 21.585361 2.628116 356.580324 351.689061 13.995478 6.609558 287.210396 311.109226 316.442080 309.509051 347.971973 357.522422 23.869734 357.473990 353.295049 6.820662 348.381344 4.072830 61.050908 74.584403 342.208197 46.223995 359.788559 1.166816 350.017090 
0.000000 0.000000 0.000000 339.798738 354.359482 357.822455 7.986339 10.784652 7.762385 0.563087 1.538730 0.707714 11.743862 353.411520 354.768598 0.153511 0.990680 359.369456 356.212809 3.759156 356.569683 1.228440 6.774974 359.912224 355.903845 353.733635 5.706047 359.652419 359.416395 358.699149 0.398521 6.453243 359.919605 359.788401 359.991273 0.004828 356.331549 7.574843 0.364934 341.688215 16.475197 8.480244 328.109747 356.261254 21.645758 2.625563 356.581485 351.694966 14.016879 6.637726 287.237860 311.111945 316.437153 309.532592 347.996554 357.527408 23.860337 357.498094 353.321377 6.840287 348.528769 4.017796 61.169812 74.676010 342.042460 46.207084 359.968586 1.141762 350.139034 
0.000000 0.000000 0.000000 339.815878 354.378909 357.843334 7.969616 10.737477 7.718201 0.561609 1.543413 0.705944 11.733672 353.428768 354.797569 0.158360 0.989021 359.370564 356.201631 3.697759 356.535789 1.227733 6.801182 359.911500 355.901557 353.757615 5.716492 359.643040 359.390475 358.684174 0.400596 6.495979 359.910496 359.790288 0.029151 359.996168 356.374807 7.583090 0.367133 341.605887 16.468416 8.503903 327.899866 356.262443 21.713426 2.621479 356.597118 351.701408 14.030659 6.657430 287.265823 311.111977 316.431272 309.559569 348.037854 357.558253 23.878626 357.519103 353.343891 6.861866 348.653802 3.971429 61.281382 74.755701 341.853974 46.217505 0.171873 1.141214 350.302500 
